<svg width="622" height="610" xmlns="http://www.w3.org/2000/svg" xmlns:xlink="http://www.w3.org/1999/xlink"
    xml:space="preserve" overflow="hidden">
    <defs>
        <clipPath id="clip0">
            <rect x="1869" y="1073" width="622" height="610" />
        </clipPath>
        <clipPath id="clip1">
            <rect x="2035" y="1072" width="330" height="331" />
        </clipPath>
        <clipPath id="clip2">
            <rect x="2035" y="1072" width="330" height="331" />
        </clipPath>
        <clipPath id="clip3">
            <rect x="2035" y="1072" width="330" height="331" />
        </clipPath>
    </defs>
    <g clip-path="url(#clip0)" transform="translate(-1869 -1073)">
        <g clip-path="url(#clip1)">
            <g clip-path="url(#clip2)">
                <g clip-path="url(#clip3)">
                    <path
                        d="M2203.22 1117.74C2146.29 1115.97 2098.71 1160.69 2096.95 1217.61 2096.91 1218.68 2096.9 1219.75 2096.9 1220.81 2096.9 1292.82 2169.3 1345.52 2192.77 1360.72 2197.22 1363.6 2202.92 1363.65 2207.42 1360.85 2230.14 1346.8 2297.68 1299.39 2302.83 1229.32 2307.12 1171 2261.67 1119.5 2203.22 1117.74ZM2124.4 1229.93 2124.4 1210.5 2147.26 1210.5C2166.9 1210.52 2182.81 1226.44 2182.83 1246.07L2182.83 1265.5 2159.97 1265.5C2140.33 1265.48 2124.42 1249.56 2124.4 1229.93ZM2210.33 1320.5 2189.71 1320.5C2185.91 1320.5 2182.83 1317.42 2182.83 1313.62 2182.83 1309.83 2185.91 1306.75 2189.71 1306.75L2210.33 1306.75C2214.13 1306.75 2217.21 1309.83 2217.21 1313.62 2217.21 1317.42 2214.13 1320.5 2210.33 1320.5ZM2275.65 1229.93C2275.62 1249.56 2259.71 1265.48 2240.07 1265.5L2217.21 1265.5 2217.21 1246.07C2217.23 1226.44 2233.14 1210.52 2252.78 1210.5L2275.65 1210.5Z"
                        fill="#00B050" />
                </g>
            </g>
        </g><text fill="#00B050" font-family="Calibri,Calibri_MSFontService,sans-serif" font-weight="400"
            font-size="147" transform="matrix(1 0 0 1 1957.72 1556)">HdCxrti</text>
    </g>
</svg>